<svg id="Layer_1" data-name="Layer 1" xmlns="http://www.w3.org/2000/svg" viewBox="0 0 935.1 935.1">
  <path d="M979,512.5q0,15.405-.99,30.55l-.61,8.32a464.3606,464.3606,0,0,1-29.27,128.52q-1.665,4.38-3.44,8.71a465.7061,465.7061,0,0,1-47.59,88.29q-2.595,3.795-5.28,7.53A469.94,469.94,0,0,1,749.18,915.16q-3.975,2.355-8.01,4.62a467.8932,467.8932,0,0,1-495.54-22.69q-3.705-2.565-7.36-5.22A469.79,469.79,0,0,1,125.72,776.63l-4.82-7.16A464.8567,464.8567,0,0,1,62.68,643.74v-.01c-.78-2.63-1.52-5.27-2.24-7.92A467.3382,467.3382,0,0,1,44.01,513.42v-.01c-.01-.3-.01-.61-.01-.91,0-2.69.02-5.37.08-8.05v-.01A466.41,466.41,0,0,1,62.16,383.06q1.47-5.13,3.06-10.21a464.7881,464.7881,0,0,1,53.69-114.27c1.57-2.42,3.15-4.83,4.76-7.21A470.2465,470.2465,0,0,1,250.55,124.55l.02-.01c2.2-1.49,4.43-2.95,6.66-4.4a467.88,467.88,0,0,1,493.25-9.52c2.33,1.38,4.59,2.79,6.88,4.16l.05.05A469.7,469.7,0,0,1,909.4,266.97l.02.04q2.115,3.405,4.16,6.85a464.2046,464.2046,0,0,1,52.98,131.08q1.065,4.5,2.03,9.03v.01A468.8527,468.8527,0,0,1,979,512.5Z" transform="translate(-43.95 -44.95)" style="fill: #2e3192;stroke: #000;stroke-miterlimit: 10;stroke-width: 0.1px"/>
  <path d="M685,301.83v63.34A22.8283,22.8283,0,0,1,662.17,388H487V279H662.17A22.8283,22.8283,0,0,1,685,301.83Z" transform="translate(-43.95 -44.95)" style="fill: #b3b3b3;opacity: 0.75"/>
  <path d="M914.25,273.36c-.22.17-.45.34-.67.5-20.21,15.2-39.27,22.84-56.14,22.84-13.6,0-25.79-4.97-36.04-14.95-36.37-35.41-82.63-39.07-102.45-30.39-3.36,1.47-7.76,3.69-12.85,6.26-20.88,10.55-52.28,26.4-81.4,26.41a62.0419,62.0419,0,0,1-28.29-6.28c-11.98-6.03-21.68-15.6-31.06-24.86-21.94-21.64-40.88-40.34-86.24-15.72-37.61,20.4-65.88,34.08-90.61,39.25-27.99,5.84-49.67.13-68.23-17.97-31.31-30.52-76.67-23.9-102.45.12-20.53,19.15-65.98,14.84-100.5,7.86l1.59-7.85c1.57-2.42,3.15-4.83,4.76-7.21,41.33,7.99,71.58,6.37,83.24-4.5,15.72-14.65,37.36-23.62,59.39-24.64a86.66,86.66,0,0,1,65.13,24.76c14.61,14.24,31.2,18.48,53.79,13.76,22.75-4.75,50.94-18.48,86.26-37.64,24.72-13.42,45.91-16.89,64.76-10.6,16.57,5.53,28.66,17.46,40.35,29,8.89,8.77,17.28,17.05,27.02,21.95,27.75,13.99,70.02-7.36,95.28-20.12,5.3-2.68,9.88-4.99,13.64-6.64,24.5-10.73,77.94-7.4,120.03,33.59,21.45,20.89,51,6.27,72.01-9.67l4.83,6.35.02.04Z" transform="translate(-43.95 -44.95)" style="fill: #1b1464"/>
  <path d="M968.6,421.99h-1.45l-1.37-.51c-19.65-7.36-44.73.62-57.93,6.02-4.26,1.75-8.67,3.68-12.94,5.54-19.05,8.31-38.66,16.87-59.55,16.87a72.8,72.8,0,0,1-10.75-.79c-21.68-3.21-39.56-16.17-56.86-28.71-18.66-13.52-36.27-26.31-56.6-25.43-16.12.69-31,9.95-46.74,19.75a259.6055,259.6055,0,0,1-22.74,13.11c-10.02,4.9-20.47,8.35-31.7,8.34h-.04a53.9891,53.9891,0,0,1-9.12-.77c-15.64-2.66-27.92-11.92-39.8-20.88-10.07-7.59-19.58-14.75-30.41-17.48-17.58-4.42-35.55,3.29-54.58,11.46-.05.02-.09.04-.14.06a.1421.1421,0,0,1-.06.02c-9.87,4.25-19.91,8.55-30.26,11.29a.1421.1421,0,0,1-.06.02c-9.33,2.47-18.92,3.68-28.85,2.43a64.7819,64.7819,0,0,1-7.59-1.43c-.14-.04-.28-.07-.42-.11-10.18-2.61-19.43-7.44-28.33-12.71-2.66-1.57-5.3-3.18-7.91-4.79-13.26-8.13-25.78-15.81-39.6-16.89-.9-.07-1.79-.11-2.69-.12-14.64-.27-29.02,6.58-44.18,13.81-18.66,8.9-37.96,18.1-59.36,14.3a61.2439,61.2439,0,0,1-15.09-4.85,94.71,94.71,0,0,1-12.3-6.97c-4.22-2.77-8.28-5.78-12.29-8.78-.31-.23-.61-.46-.92-.69-7.47-5.59-14.52-10.87-22.19-14.58-25-12.11-55.29-8.48-98.21,11.77l-3.41-7.23q1.47-5.13,3.06-10.21c29.3-13.14,69.68-26.1,105.54-8.73a113.3146,113.3146,0,0,1,16.13,9.81c2.95,2.09,5.82,4.24,8.67,6.36q1.815,1.365,3.62,2.7c4.11,3.05,8.17,5.94,12.3,8.43a52.7918,52.7918,0,0,0,17.89,7.21c16.35,2.91,32.53-4.81,49.67-12.98,15-7.15,30.43-14.51,47.21-15.32h.01a59.8991,59.8991,0,0,1,7.8.11c17.65,1.39,32.42,10.45,46.7,19.21,2.84,1.74,5.65,3.46,8.44,5.1,9.55,5.62,18.94,10.28,29.03,11.64l.42.06h.03a53.6589,53.6589,0,0,0,16.28-.59.1268.1268,0,0,0,.06-.01c10.12-1.8,20.35-5.92,30.91-10.42.01-.01.03-.01.05-.02,1.24-.53,2.48-1.06,3.73-1.6,20.63-8.86,41.97-18.02,64.79-12.28,13.98,3.52,25.25,12.01,36.14,20.23,9.12,6.87,17.81,13.42,27.37,16.51.01.01.02.01.04.01a37.5984,37.5984,0,0,0,5.44,1.35c9.96,1.69,19.58-.8,29.21-5.25,7.68-3.54,15.37-8.32,23.25-13.23,16.81-10.46,34.2-21.29,54.52-22.15,25.86-1.11,46.62,13.92,66.67,28.45,16.46,11.94,32.01,23.21,49.81,25.85,20.43,3.02,40.41-5.7,61.56-14.93,4.35-1.89,8.84-3.85,13.28-5.67,14.38-5.89,41.1-14.31,64.77-7.76q1.065,4.5,2.03,9.03v.01Z" transform="translate(-43.95 -44.95)" style="fill: #1b1464"/>
  <path d="M44.01,513.41v.01l3.77,7.06c16.9-9.03,41.32-11.41,67-6.53,11.2,2.13,22.61,5.25,33.64,8.26,10.46,2.86,21.1,5.76,31.93,7.95,4.59.93,9.21,1.73,13.87,2.34.01.01.01,0,.01,0,2.17.3,4.35.54,6.54.74q.015.03.03,0c4.6.42,9.24.63,13.91.59q1.35-.015,2.7-.06h.02c19.6-.6,38.59-5.59,56.98-10.43,20.89-5.49,40.61-10.68,60.84-9.85,17.53.73,34.27,5.93,51.54,12.12l.42.15q5.025,1.815,10.13,3.7c6.53,2.41,13.17,4.84,19.91,7.1.14.05.28.1.42.14a218.9578,218.9578,0,0,0,26.45,7.26c38.91,7.8,78.56.81,116.89-5.95,9.33-1.65,18.54-3.27,27.65-4.68a.1268.1268,0,0,1,.06-.01c11.99-1.86,23.8-3.35,35.47-4.04h.06c18.39-1.1,36.42-.19,54.24,4.4,12.63,3.25,25.28,8.51,37.5,13.59,18.53,7.7,37.67,15.65,58.39,17.58.14.02.29.03.43.04q1.335.12,2.67.21c2.26.15,4.51.21,6.74.21a142.6791,142.6791,0,0,0,27.04-2.84c9.6-1.83,19.04-4.35,28.33-6.82,8.8-2.34,17.89-4.77,26.77-6.5a198.7877,198.7877,0,0,1,108.16,9.68l2.88-7.46.61-8.32a214.8471,214.8471,0,0,0-114.71-9.6c-9.41,1.84-18.78,4.33-27.83,6.74-4.84,1.29-9.61,2.56-14.33,3.72-12.85,3.18-25.38,5.56-38.03,5.4h-.45c-1.38-.03-2.77-.08-4.16-.17-19.27-1.23-37.29-8.72-56.37-16.65-12.74-5.29-25.91-10.77-39.65-14.31-22.92-5.9-46.19-6.2-69.37-4.06h-.06c-11.7,1.09-23.38,2.79-34.98,4.71h-.06c-6.62,1.1-13.22,2.26-19.78,3.42-36.87,6.5-75.01,13.23-110.97,6.03a186.5483,186.5483,0,0,1-19.61-5.17c-.14-.04-.28-.08-.42-.13-8.22-2.59-16.37-5.59-24.37-8.54q-2.88-1.05-5.77-2.12l-.42-.15a308.9732,308.9732,0,0,0-34.17-10.78c-.57-.14-1.15-.28-1.72-.4a136.4389,136.4389,0,0,0-24.87-3.48c-12.64-.52-25.03,1.03-37.18,3.48-.64.13-1.28.26-1.92.4-8.95,1.87-17.77,4.18-26.47,6.47-19.13,5.04-37.21,9.79-55.79,9.97-1.02.01-2.05.01-3.07-.01-.87-.01-1.73-.03-2.59-.07h-.01a150.3572,150.3572,0,0,1-21.99-2.59c-5.47-1.02-10.95-2.27-16.48-3.66-5.86-1.46-11.77-3.08-17.77-4.72-11.33-3.1-23.06-6.3-34.88-8.55-16.37-3.11-47.04-6.24-73.68,6.21v.01Z" transform="translate(-43.95 -44.95)" style="fill: #1b1464"/>
  <path d="M62.68,643.73v.01l4.08,6.9c36.42-21.54,81.23-26.08,119.86-12.13,5.66,2.04,11.23,4.43,17.12,6.96,14.41,6.19,29.23,12.55,45.15,13.4a63.5106,63.5106,0,0,0,10.29-.25,77.0066,77.0066,0,0,0,21.6-5.85h.01l.01-.01c6.79-2.83,13.3-6.3,19.7-9.74.16-.08.31-.17.47-.25.13-.07.27-.14.4-.21l.01-.01c14.47-7.77,28.17-15.03,42.43-13.32a37.1014,37.1014,0,0,1,4.68.88h.01a4.0084,4.0084,0,0,1,.43.12c13.26,3.53,24.87,14.14,37.08,25.31,8.22,7.51,16.57,15.13,25.69,20.68.22.14.44.27.66.4,9.96,5.93,20.85,9.34,33.49,7.39a46.5607,46.5607,0,0,0,18.85-7.39c.2-.13.4-.27.59-.4,10.24-6.96,18.13-17.33,25.86-27.47,8.98-11.8,17.46-22.93,28.95-28.32,18.3-8.58,41.61-2.11,73.37,20.35,19.27,13.62,44.51,31.46,71.56,31.46a58.4831,58.4831,0,0,0,15.63-2.1,62.3116,62.3116,0,0,0,6.83-2.33c.02-.01.03-.02.05-.02,8.72-3.57,16.34-8.87,23.76-14.03.97-.68,1.94-1.35,2.9-2v-.01c.02-.01.03-.02.05-.02a103.6083,103.6083,0,0,1,16.55-9.85c1.08-.48,2.17-.92,3.27-1.33a5.0953,5.0953,0,0,1,.55-.19v-.01c11.71-4.21,24.33-4.41,36.48-2.47,13.05,2.08,25.56,6.61,35.83,11.27,8.78,3.98,17.6,8.63,26.12,13.13,16.63,8.77,33.82,17.83,52.59,23.08a137.2206,137.2206,0,0,0,36.88,4.98,141.2616,141.2616,0,0,0,22.17-1.74q1.77-4.335,3.44-8.71l-1.52-7.86a124.0265,124.0265,0,0,1-56.67-2.08c-17.12-4.79-32.81-13.06-49.42-21.82-8.74-4.61-17.77-9.37-26.98-13.55a162.0943,162.0943,0,0,0-34.55-11.52,102.0081,102.0081,0,0,0-34.36-1.51c-.16.02-.31.04-.47.06h-.01a75.5308,75.5308,0,0,0-19.85,5.65c-7.08,3.15-13.43,7.35-19.54,11.56-.01.01-.03.02-.04.03l-2.55,1.77c-8.18,5.68-15.93,11.08-24.5,13.73-.01.01-.03.01-.05.02-.4.12-.8.24-1.2.35-23.63,6.51-47.36-8.38-73.71-27-23.24-16.44-57.8-36.59-89.4-21.77-15.04,7.04-25.13,20.29-34.89,33.1-10.53,13.83-20.48,26.9-35.01,29.14-16.96,2.62-30.7-9.93-46.6-24.47-11.63-10.62-23.57-21.53-37.91-27.05-.14-.06-.27-.11-.41-.16a54.4764,54.4764,0,0,0-12.78-3.16,58.1115,58.1115,0,0,0-24.85,2.68c-.23.07-.46.15-.69.23-9.3,3.03-18.12,7.76-26.77,12.41a201.1062,201.1062,0,0,1-20.16,9.9h-.01a60.066,60.066,0,0,1-15.74,4.14,55.2936,55.2936,0,0,1-17.87-1.25c-9.71-2.16-19.46-6.35-29.56-10.69-5.85-2.51-11.9-5.11-18-7.31-42.44-15.31-91.47-10.67-131.62,12.35Z" transform="translate(-43.95 -44.95)" style="fill: #1b1464"/>
  <path d="M125.72,776.63l6.79,4.23c6.03-9.67,16.84-17.45,28.91-20.81,19.43-5.4,40.79-1.24,57.23,2.99,5.04,1.29,10.19,2.74,15.18,4.14,15,4.21,30.52,8.56,46.66,9.89,28.35,2.34,56.02-4.81,82.78-11.72,27.62-7.13,53.72-13.87,80.23-10.94,19.62,2.17,38.04,9.5,57.55,17.26,18.8,7.49,38.25,15.23,59.02,17.99a140.2,140.2,0,0,0,18.46,1.19c26.55,0,52.54-6.9,77.83-13.62,18.01-4.79,36.64-9.73,54.95-11.98,39.69-4.88,80.67,2.58,120.29,9.8,6.84,1.24,13.9,2.53,20.85,3.73,14.95,2.59,27.6,4.4,39.37,5.64q2.685-3.735,5.28-7.53l.75-7.95c-12.64-1.19-26.2-3.07-42.66-5.92-6.89-1.19-13.92-2.48-20.72-3.71-40.8-7.43-82.99-15.11-125.11-9.94-19.4,2.38-38.57,7.47-57.11,12.4-30.98,8.23-60.24,16-90.07,12.03-18.8-2.5-36.49-9.54-55.22-17-19.63-7.81-39.94-15.89-61.7-18.29-29.43-3.25-58.19,4.17-85.99,11.35-26.65,6.88-51.81,13.37-77.46,11.27-14.61-1.21-28.72-5.17-43.66-9.36-5.07-1.42-10.31-2.89-15.52-4.23-18.37-4.72-42.41-9.33-65.49-2.91-14.62,4.07-27.92,13.24-36.24,24.84Z" transform="translate(-43.95 -44.95)" style="fill: #1b1464"/>
  <path d="M752.66,907.96l-3.48,7.2q-3.975,2.355-8.01,4.62a30.1245,30.1245,0,0,1-10.73-11.93c-2.41-4.87-3.17-9.95-3.85-14.43a44.3164,44.3164,0,0,0-1.82-8.5c-4.86-13.04-24.98-16.2-40.84-11.64-9.45,2.72-18.38,7.01-27.83,11.54A251.377,251.377,0,0,1,633,894.96c-23.72,8.59-45.98,7.08-61.07-4.14a80.303,80.303,0,0,1-9.38-8.57c-1.8-1.83-3.51-3.57-5.27-5.12-19.32-16.94-49.85-14.38-71.98-6.34-6.54,2.38-12.85,5.2-19.52,8.18a257.5439,257.5439,0,0,1-25.53,10.3c-20.1,6.52-38.45,6.45-53.09-.19-6.31-2.86-11.67-6.79-16.87-10.59-4.45-3.26-8.67-6.35-13.15-8.52-19.23-9.35-43.75-2.02-62.97,5.41a524.0306,524.0306,0,0,0-48.54,21.71q-3.705-2.565-7.36-5.22l-3.69-7.09a538.8217,538.8217,0,0,1,53.82-24.32c22.24-8.6,50.95-16.92,75.73-4.89,5.78,2.81,10.78,6.47,15.62,10.01,4.74,3.47,9.22,6.75,14.02,8.93,13.82,6.28,30.23,3.21,41.55-.46a242.3716,242.3716,0,0,0,23.93-9.69c6.64-2.97,13.51-6.03,20.58-8.61,34.23-12.44,67.13-8.94,88,9.35,2.22,1.95,4.21,3.98,6.14,5.94a67.0266,67.0266,0,0,0,7.5,6.94c15.21,11.3,37.29,5.12,46.09,1.94,7.27-2.64,14.24-5.98,21.62-9.52,9.63-4.62,19.58-9.4,30.33-12.5,22.9-6.57,51.79-1.3,60.25,21.43a57.1626,57.1626,0,0,1,2.65,11.7c.55,3.65,1.07,7.1,2.37,9.74C746.26,903.76,748.84,906.11,752.66,907.96Z" transform="translate(-43.95 -44.95)" style="fill: #1b1464"/>
  <path d="M763.14,120.54c-.17.16-.3.29-.43.43a224.1376,224.1376,0,0,0-14.96,17.96c-6.97,8.98-14.18,18.27-23.24,26.05-16,13.76-42.35,22.68-62.4,9.71-5.88-3.82-10.42-8.94-14.81-13.9-5.76-6.52-10.75-12.15-17-12.78-8.33-.84-16.36,8.19-20.39,13.65-1.07,1.44-2.11,2.92-3.16,4.4-5.84,8.25-12.46,17.59-23.02,22.42a35.944,35.944,0,0,1-15.18,3.31c-17.53,0-33.8-12.07-43.11-20.6-1.76-1.62-3.53-3.29-5.31-4.96-11.48-10.83-22.34-21.05-35.61-22.38-9.35-.95-19.99,2.77-32.56,11.37-3.14,2.15-6.18,4.4-9.4,6.78-8.01,5.93-16.3,12.05-25.95,16.29-13.36,5.87-32.7,8.2-46.95-2.82-6.87-5.32-11.09-12.71-14.82-19.22-3.3-5.79-6.43-11.25-10.85-14.61-9.31-7.06-24.09-4.64-35.92-1.75l-1.88.46c-14.64,3.62-31.23,7.72-46.64.89a43.0955,43.0955,0,0,1-15.12-11.41l6.12-5.28.02-.01c2.2-1.49,4.43-2.95,6.66-4.4a26.3,26.3,0,0,0,8.81,6.48c10.39,4.6,23.57,1.35,36.31-1.8l1.91-.47c15.29-3.74,34.71-6.6,49.4,4.55,7.02,5.32,11.3,12.8,15.07,19.41,3.28,5.72,6.37,11.13,10.73,14.5,8.71,6.75,21.99,4.67,30.71.84,8.02-3.53,15.23-8.86,22.87-14.51,3.2-2.37,6.5-4.81,9.88-7.12,15.83-10.82,29.95-15.43,43.21-14.09,18.68,1.88,32.65,15.04,44.97,26.65,1.73,1.63,3.44,3.24,5.16,4.82,7.27,6.66,25.8,21.42,40.8,14.54,6.66-3.05,11.5-9.89,16.63-17.13,1.11-1.56,2.22-3.12,3.34-4.65,10.61-14.37,22.67-21.31,34.89-20.07,12.47,1.27,20.38,10.21,27.37,18.1,3.84,4.34,7.47,8.44,11.52,11.07,12.55,8.12,31.27,1.91,43.27-8.41,7.84-6.74,14.25-14.99,21.03-23.73,4.81-6.19,9.77-12.58,15.37-18.5,2.33,1.38,4.59,2.79,6.88,4.16l.05.05Z" transform="translate(-43.95 -44.95)" style="fill: #1b1464"/>
  <rect x="320.05" y="234.05" width="109" height="485" rx="22.8261" style="fill: #b3b3b3;opacity: 0.75"/>
  <path d="M450.1738,779H386.8262A37.8262,37.8262,0,0,1,349,741.1738V301.8262A37.8262,37.8262,0,0,1,386.8262,264H488V741.1738A37.8262,37.8262,0,0,1,450.1738,779ZM386.8262,294A7.8262,7.8262,0,0,0,379,301.8262V741.1738A7.8262,7.8262,0,0,0,386.8262,749h63.3476A7.8262,7.8262,0,0,0,458,741.1738V294Z" transform="translate(-43.95 -44.95)" style="fill: #f2f2f2"/>
  <g>
    <path d="M613,496.83v63.34A22.8283,22.8283,0,0,1,590.17,583H487V474H590.17A22.8283,22.8283,0,0,1,613,496.83Z" transform="translate(-43.95 -44.95)" style="fill: #b3b3b3;opacity: 0.75"/>
    <path d="M575.17,452H487v30h88.17a7.8356,7.8356,0,0,1,7.83,7.83v63.34a7.8356,7.8356,0,0,1-7.83,7.83H487v30h88.17A37.8722,37.8722,0,0,0,613,553.17V489.83A37.8722,37.8722,0,0,0,575.17,452Z" transform="translate(-43.95 -44.95)" style="fill: #f2f2f2"/>
  </g>
  <path d="M662.17,264H487v30H662.17a7.8356,7.8356,0,0,1,7.83,7.83v63.34a7.8356,7.8356,0,0,1-7.83,7.83H487v30H662.17A37.8722,37.8722,0,0,0,700,365.17V301.83A37.8722,37.8722,0,0,0,662.17,264Z" transform="translate(-43.95 -44.95)" style="fill: #f2f2f2"/>
</svg>
